<?xml version="1.0" standalone="no"?>
<!DOCTYPE svg PUBLIC "-//W3C//DTD SVG 20010904//EN"
 "http://www.w3.org/TR/2001/REC-SVG-20010904/DTD/svg10.dtd">
<svg version="1.0" xmlns="http://www.w3.org/2000/svg"
 width="800.000000pt" height="800.000000pt" viewBox="0 0 800.000000 800.000000"
 preserveAspectRatio="xMidYMid meet">
<metadata>
Created by potrace 1.11, written by Peter Selinger 2001-2013
</metadata>
<g transform="translate(0.000000,800.000000) scale(0.100000,-0.100000)"
fill="#000000" stroke="none">
<path d="M0 3995 l0 -3985 4000 0 4000 0 0 3985 0 3985 -4000 0 -4000 0 0
-3985z m5325 2874 c129 -20 224 -43 235 -56 4 -4 37 -129 74 -278 36 -148 69
-280 72 -292 l6 -22 -178 5 c-200 7 -479 -7 -626 -31 -343 -55 -565 -191 -696
-425 -38 -67 -83 -185 -75 -194 4 -3 170 -6 370 -6 l363 0 0 275 0 275 360 0
360 0 0 -1030 0 -1030 -360 0 -360 0 0 440 0 440 -402 0 -401 0 7 -99 c11
-173 36 -270 138 -526 60 -150 105 -283 97 -288 -2 -2 -87 -57 -189 -124 -223
-146 -281 -174 -369 -176 l-64 -2 -109 295 c-247 675 -265 729 -278 840 -15
122 -15 389 0 505 54 442 277 860 603 1134 388 325 889 456 1422 370z m-4402
-30 c109 -16 183 -39 205 -63 10 -11 128 -183 262 -381 134 -198 245 -362 247
-364 2 -3 18 3 36 11 26 12 102 110 323 412 l289 396 332 0 333 0 0 -1395 0
-1395 -360 0 -360 0 0 835 c0 576 -3 835 -10 835 -39 0 -81 -52 -305 -374
-132 -190 -243 -346 -246 -346 -3 0 -24 13 -47 30 -27 19 -119 138 -279 359
-131 181 -241 330 -245 330 -5 1 -8 -375 -8 -834 l0 -835 -360 0 -360 0 0
1395 0 1395 241 0 c132 0 273 -5 312 -11z m5857 -1069 l0 -1080 471 0 c443 0
470 -1 465 -17 -4 -14 -111 -459 -141 -590 l-5 -23 -755 0 -755 0 0 1395 0
1395 360 0 360 0 0 -1080z m-4766 -2170 c169 -13 382 -50 491 -85 93 -31 212
-92 272 -142 110 -89 207 -282 255 -503 30 -140 29 -367 -1 -514 -119 -571
-357 -925 -756 -1124 -279 -139 -589 -200 -1072 -209 l-283 -6 0 952 0 951
330 0 330 0 0 -666 0 -667 48 7 c61 8 191 50 257 83 161 82 299 222 384 390
95 189 121 472 65 707 -16 64 -20 70 -62 97 -55 35 -172 80 -262 103 -181 44
-249 49 -737 53 l-473 5 0 46 c0 38 105 495 117 511 13 17 895 26 1097 11z
m5068 -120 c16 -58 46 -175 69 -260 22 -85 42 -163 45 -172 5 -17 -18 -18
-358 -20 l-363 -3 -3 -1002 -2 -1003 -325 0 -325 0 -2 1003 -3 1002 -347 3
-348 2 0 48 c0 26 25 152 57 280 l58 232 909 -2 910 -3 28 -105z m-2432 -1370
l0 -240 -497 2 -498 3 -3 238 -2 237 500 0 500 0 0 -240z"/>
</g>
</svg>
